<svg id="icons" enable-background="new 0 0 64 64" height="512" viewBox="0 0 64 64" width="512" xmlns="http://www.w3.org/2000/svg"><path d="m32.01 13v15.99l-5 8.01h-.01l-4.99-8v-16z" fill="#5d9cec"/><path d="m13.99 21.01c0 1.66 1.34 3 3 3 1.649 0 3-1.34 3-3s-1.351-3-3-3c-1.66 0-3 1.34-3 3zm8.02-8.01v16h-.01l-9.99 15.99v-31.99z" fill="#5d9cec"/><path d="m26.999 37.999c-.334 0-.659-.167-.85-.471l-4.994-7.998c-.292-.468-.149-1.085.319-1.378.468-.292 1.084-.149 1.378.319l4.994 7.998c.292.468.149 1.085-.319 1.378-.164.103-.347.152-.528.152z" fill="#545c66"/><path d="m11.997 46.011c-.181 0-.364-.049-.528-.151-.469-.293-.611-.91-.319-1.378l9.997-16.01c.294-.469.911-.611 1.378-.319.469.293.611.91.319 1.378l-9.997 16.01c-.191.303-.516.47-.85.47z" fill="#545c66"/><path d="m62.01 13v32.01h-.02-9.98v-32.01z" fill="#5d9cec"/><path d="m42.01 28.99v16.02h-10v-16.02l4.99-7.99h.02z" fill="#656d78"/><path d="m42.01 13v15.99l-4.99-7.99h-.02l-4.99 7.99v-15.99z" fill="#5d9cec"/><path d="m32.01 28.99v16.02h-10l5-8.01z" fill="#656d78"/><path d="m52.01 13v32.01l-10-16.02v-15.99z" fill="#5d9cec"/><path d="m27.01 37-5 8.01v-16.01l4.99 8z" fill="#545c66"/><path d="m2.01 45.01v-32.01h10v31.99l-.01.02z" fill="#5d9cec"/><path d="m22.01 29v16.01h-10v-.02l9.99-15.99z" fill="#545c66"/><path d="m42.01 28.99 10 16.02h-10z" fill="#656d78"/><path d="m52.008 46.011c-.334 0-.659-.167-.85-.471l-14.993-24.012c-.292-.468-.149-1.085.319-1.378.468-.292 1.085-.148 1.378.319l14.993 24.012c.292.468.149 1.085-.319 1.378-.164.103-.348.152-.528.152z" fill="#656d78"/><path d="m22.006 46.011c-.181 0-.364-.049-.528-.151-.469-.293-.611-.91-.319-1.378l14.992-24.012c.294-.468.91-.611 1.378-.319.469.293.611.91.319 1.378l-14.993 24.011c-.19.304-.515.471-.849.471z" fill="#656d78"/><path d="m2.01 5h10v8h-10z" fill="#e6e9ed"/><path d="m42.01 5h10v8h-10z" fill="#e6e9ed"/><path d="m62.01 5v8h-10v-8h9.98z" fill="#e6e9ed"/><path d="m12.01 48v6c-1.66 0-3-1.35-3-3 0-1.66 1.34-3 3-3z" fill="#5d9cec"/><path d="m32.01 48c1.66 0 3 1.34 3 3 0 1.65-1.34 3-3 3z" fill="#5d9cec"/><path d="m12.01 48c1.66 0 3 1.34 3 3 0 1.65-1.34 3-3 3z" fill="#5d9cec"/><path d="m32.01 5h10v8h-10z" fill="#e6e9ed"/><path d="m52.01 48c1.66 0 3 1.34 3 3 0 1.65-1.34 3-3 3z" fill="#5d9cec"/><g fill="#e6e9ed"><path d="m52.01 60v-3-3c1.66 0 3-1.35 3-3 0-1.66-1.34-3-3-3v-2.99h9.98.02v17.99h-10z"/><path d="m32.01 60v-3-3c1.66 0 3-1.35 3-3 0-1.66-1.34-3-3-3v-2.99h10v17.99h-10z"/><path d="m12.01 60v-3-3c1.66 0 3-1.35 3-3 0-1.66-1.34-3-3-3v-2.99h10v17.99h-10z"/><path d="m32.01 48c-1.66 0-3 1.34-3 3 0 1.65 1.34 3 3 3v3 3 3h-10v-17.99h10z"/><path d="m22.01 5h10v8h-10z"/><path d="m12.01 60v3h-10v-17.99h9.99.01v2.99c-1.66 0-3 1.34-3 3 0 1.65 1.34 3 3 3v3z"/></g><path d="m52.01 48v6c-1.66 0-3-1.35-3-3 0-1.66 1.34-3 3-3z" fill="#5d9cec"/><path d="m16.99 18.01c1.649 0 3 1.34 3 3s-1.351 3-3 3c-1.66 0-3-1.34-3-3s1.34-3 3-3z" fill="#ffce54"/><path d="m32.01 48v6c-1.66 0-3-1.35-3-3 0-1.66 1.34-3 3-3z" fill="#5d9cec"/><path d="m12.01 5h10v8h-10z" fill="#e6e9ed"/><path d="m6.022 7c1.1 0 2 .9 2 2 0 1.11-.9 2-2 2-1.11 0-2-.89-2-2 0-1.1.89-2 2-2z" fill="#5d9cec"/><path d="m52.01 60v3h-10v-17.99h10v2.99c-1.66 0-3 1.34-3 3 0 1.65 1.34 3 3 3v3z" fill="#e6e9ed"/><path d="m56.029 9.999c-.553 0-1.005-.447-1.005-1s.442-1 .994-1h.011c.552 0 1 .447 1 1s-.448 1-1 1z" fill="#ccd1d9"/><path d="m59.029 9.999c-.553 0-1.005-.447-1.005-1s.442-1 .994-1h.011c.552 0 1 .447 1 1s-.448 1-1 1z" fill="#ccd1d9"/><path d="m29 10.006h-4c-.553 0-1-.447-1-1s.447-1 1-1h4c.553 0 1 .447 1 1s-.447 1-1 1z" fill="#ccd1d9"/><path d="m39 10.006h-4c-.553 0-1-.447-1-1s.447-1 1-1h4c.553 0 1 .447 1 1s-.447 1-1 1z" fill="#ccd1d9"/><path d="m4.984 30.014c-.256 0-.512-.098-.707-.293-.391-.391-.391-1.023 0-1.414l1.999-1.999c.391-.391 1.023-.391 1.414 0s.391 1.023 0 1.414l-1.999 1.999c-.195.195-.451.293-.707.293z" fill="#4a89dc"/><path d="m6.983 32.014c-.256 0-.512-.098-.707-.293l-1.999-2c-.391-.391-.391-1.023 0-1.414s1.023-.391 1.414 0l1.999 2c.391.391.391 1.023 0 1.414-.195.195-.451.293-.707.293z" fill="#4a89dc"/><path d="m58.983 30.014c-.256 0-.512-.098-.707-.293l-1.999-1.999c-.391-.391-.391-1.023 0-1.414s1.023-.391 1.414 0l1.999 1.999c.391.391.391 1.023 0 1.414-.195.195-.451.293-.707.293z" fill="#4a89dc"/><path d="m56.984 32.014c-.256 0-.512-.098-.707-.293-.391-.391-.391-1.023 0-1.414l1.999-2c.391-.391 1.023-.391 1.414 0s.391 1.023 0 1.414l-1.999 2c-.195.195-.451.293-.707.293z" fill="#4a89dc"/><path d="m18 58h-12c-.553 0-1-.447-1-1s.447-1 1-1h12c.553 0 1 .447 1 1s-.447 1-1 1z" fill="#ccd1d9"/><path d="m15 61h-6c-.553 0-1-.447-1-1s.447-1 1-1h6c.553 0 1 .447 1 1s-.447 1-1 1z" fill="#ccd1d9"/><path d="m38 58h-12c-.553 0-1-.447-1-1s.447-1 1-1h12c.553 0 1 .447 1 1s-.447 1-1 1z" fill="#ccd1d9"/><path d="m35 61h-6c-.553 0-1-.447-1-1s.447-1 1-1h6c.553 0 1 .447 1 1s-.447 1-1 1z" fill="#ccd1d9"/><path d="m58 58h-12c-.553 0-1-.447-1-1s.447-1 1-1h12c.553 0 1 .447 1 1s-.447 1-1 1z" fill="#ccd1d9"/><path d="m55 61h-6c-.553 0-1-.447-1-1s.447-1 1-1h6c.553 0 1 .447 1 1s-.447 1-1 1z" fill="#ccd1d9"/><path d="m13.007 63v-57.999c0-.553-.447-1-1-1s-1 .447-1 1v57.998.001z" fill="#f5f7fa"/><path d="m23.01 63v-57.999c0-.553-.447-1-1-1s-1 .447-1 1v57.998.001z" fill="#f5f7fa"/><path d="m33.013 63v-57.999c0-.553-.447-1-1-1s-1 .447-1 1v57.998.001z" fill="#f5f7fa"/><path d="m43.016 63v-57.999c0-.553-.447-1-1-1s-1 .447-1 1v57.998.001z" fill="#f5f7fa"/><path d="m53.019 63v-57.999c0-.553-.447-1-1-1s-1 .447-1 1v57.998.001z" fill="#f5f7fa"/><path d="m12.01 5h-10-.02v-2c0-1.11.899-2 2-2h56c1.109 0 2 .89 2 2v2h-9.98-10-10-10z" fill="#ccd1d9"/><path d="m5.022 4.001c-.553 0-1.005-.447-1.005-1s.442-1 .994-1h.011c.552 0 1 .447 1 1s-.448 1-1 1z" fill="#e6e9ed"/><path d="m8.022 4.001c-.553 0-1.005-.447-1.005-1s.442-1 .994-1h.011c.552 0 1 .447 1 1s-.448 1-1 1z" fill="#e6e9ed"/><path d="m11.022 4.001c-.553 0-1.005-.447-1.005-1s.442-1 .994-1h.011c.552 0 1 .447 1 1s-.448 1-1 1z" fill="#e6e9ed"/></svg>